<?xml version="1.0" encoding="UTF-8"?>
<svg id="a" data-name="Layer 1" xmlns="http://www.w3.org/2000/svg" viewBox="0 0 558.02 174.41">
  <g>
    <rect x="0" y="60.39" width="558.02" height="70.65" fill="none"/>
    <path d="M5.47,63.62c3.82-.58,8.35-1.01,13.32-1.01,9,0,15.41,2.09,19.66,6.05,4.32,3.96,6.84,9.58,6.84,17.43s-2.45,14.4-6.98,18.87c-4.54,4.54-12.02,6.98-21.46,6.98-4.46,0-8.21-.22-11.38-.58v-47.74ZM11.74,106.54c1.58.29,3.89.36,6.34.36,13.39,0,20.67-7.49,20.67-20.59.07-11.45-6.41-18.72-19.66-18.72-3.24,0-5.69.29-7.34.65v38.31Z"/>
    <path d="M60.26,66.86c.07,2.16-1.51,3.89-4.03,3.89-2.23,0-3.82-1.73-3.82-3.89s1.66-3.96,3.96-3.96,3.89,1.73,3.89,3.96ZM53.21,111.5v-34.85h6.34v34.85h-6.34Z"/>
    <path d="M89.35,111.5l-.5-4.39h-.22c-1.94,2.74-5.69,5.18-10.66,5.18-7.06,0-10.66-4.97-10.66-10.01,0-8.42,7.49-13.03,20.95-12.96v-.72c0-2.88-.79-8.06-7.92-8.06-3.24,0-6.62,1.01-9.07,2.59l-1.44-4.18c2.88-1.87,7.06-3.1,11.45-3.1,10.66,0,13.25,7.27,13.25,14.26v13.03c0,3.02.14,5.98.58,8.35h-5.76ZM88.42,93.72c-6.91-.14-14.76,1.08-14.76,7.85,0,4.1,2.74,6.05,5.98,6.05,4.54,0,7.42-2.88,8.42-5.83.22-.65.36-1.37.36-2.02v-6.05Z"/>
    <path d="M104.76,60.38h6.34v51.12h-6.34v-51.12Z"/>
    <path d="M125.28,95.23c.14,8.57,5.62,12.1,11.95,12.1,4.54,0,7.27-.79,9.65-1.8l1.08,4.54c-2.23,1.01-6.05,2.16-11.59,2.16-10.73,0-17.14-7.06-17.14-17.57s6.19-18.79,16.35-18.79c11.38,0,14.4,10.01,14.4,16.42,0,1.3-.14,2.3-.22,2.95h-24.48ZM143.86,90.7c.07-4.03-1.66-10.3-8.78-10.3-6.41,0-9.22,5.9-9.72,10.3h18.51Z"/>
    <path d="M187.92,60.38v42.12c0,3.1.07,6.62.29,9h-5.69l-.29-6.05h-.14c-1.94,3.89-6.19,6.84-11.88,6.84-8.42,0-14.91-7.13-14.91-17.71-.07-11.59,7.13-18.72,15.63-18.72,5.33,0,8.93,2.52,10.51,5.33h.14v-20.81h6.34ZM181.58,90.84c0-.79-.07-1.87-.29-2.66-.94-4.03-4.39-7.34-9.14-7.34-6.55,0-10.44,5.76-10.44,13.46,0,7.06,3.46,12.89,10.3,12.89,4.25,0,8.14-2.81,9.29-7.56.22-.86.29-1.73.29-2.74v-6.05Z"/>
    <path d="M220.17,62.97v48.53h-6.26v-48.53h6.26Z"/>
    <path d="M231.62,86.09c0-3.6-.07-6.55-.29-9.43h5.62l.36,5.76h.14c1.73-3.31,5.76-6.55,11.52-6.55,4.82,0,12.31,2.88,12.31,14.83v20.81h-6.34v-20.09c0-5.62-2.09-10.3-8.06-10.3-4.18,0-7.42,2.95-8.5,6.48-.29.79-.43,1.87-.43,2.95v20.95h-6.34v-25.42Z"/>
    <path d="M263.08,121.59c2.88-.22,5.4-1.01,6.91-2.66,1.73-2.02,2.38-4.75,2.38-13.11v-29.16h6.34v31.61c0,6.77-1.08,11.16-4.18,14.33-2.81,2.81-7.42,3.96-10.8,3.96l-.65-4.97ZM279.43,66.86c.07,2.09-1.44,3.89-3.96,3.89-2.38,0-3.89-1.8-3.89-3.89,0-2.23,1.66-3.96,4.03-3.96s3.82,1.73,3.82,3.96Z"/>
    <path d="M292.6,95.23c.14,8.57,5.62,12.1,11.95,12.1,4.54,0,7.27-.79,9.65-1.8l1.08,4.54c-2.23,1.01-6.05,2.16-11.59,2.16-10.73,0-17.14-7.06-17.14-17.57s6.19-18.79,16.35-18.79c11.38,0,14.4,10.01,14.4,16.42,0,1.3-.14,2.3-.22,2.95h-24.48ZM311.18,90.7c.07-4.03-1.66-10.3-8.79-10.3-6.41,0-9.22,5.9-9.72,10.3h18.51Z"/>
    <path d="M349.99,110.21c-1.66.86-5.33,2.02-10.01,2.02-10.51,0-17.35-7.13-17.35-17.79s7.34-18.51,18.72-18.51c3.74,0,7.06.94,8.78,1.8l-1.44,4.9c-1.51-.86-3.89-1.66-7.34-1.66-7.99,0-12.31,5.9-12.31,13.18,0,8.06,5.18,13.03,12.1,13.03,3.6,0,5.98-.94,7.78-1.73l1.08,4.75Z"/>
    <path d="M365.97,66.64v10.01h9.07v4.82h-9.07v18.79c0,4.32,1.22,6.77,4.75,6.77,1.66,0,2.88-.22,3.67-.43l.29,4.75c-1.22.5-3.17.86-5.62.86-2.95,0-5.33-.94-6.84-2.66-1.8-1.87-2.45-4.97-2.45-9.07v-19.01h-5.4v-4.82h5.4v-8.35l6.19-1.66Z"/>
    <path d="M413.28,93.79c0,12.89-8.93,18.51-17.35,18.51-9.43,0-16.71-6.91-16.71-17.93,0-11.67,7.63-18.51,17.28-18.51s16.78,7.27,16.78,17.93ZM385.63,94.15c0,7.63,4.39,13.39,10.58,13.39s10.58-5.69,10.58-13.54c0-5.91-2.95-13.39-10.44-13.39s-10.73,6.91-10.73,13.54Z"/>
    <path d="M421.27,87.53c0-4.1-.07-7.63-.29-10.87h5.54l.22,6.84h.29c1.58-4.68,5.4-7.63,9.65-7.63.72,0,1.22.07,1.8.22v5.98c-.65-.14-1.3-.22-2.16-.22-4.46,0-7.63,3.38-8.5,8.14-.14.86-.29,1.87-.29,2.95v18.58h-6.26v-23.98Z"/>
    <path d="M443.94,105.02c1.87,1.22,5.18,2.52,8.35,2.52,4.61,0,6.77-2.3,6.77-5.18,0-3.02-1.8-4.68-6.48-6.41-6.26-2.23-9.22-5.69-9.22-9.86,0-5.62,4.54-10.23,12.03-10.23,3.53,0,6.62,1.01,8.57,2.16l-1.58,4.61c-1.37-.86-3.89-2.02-7.13-2.02-3.74,0-5.83,2.16-5.83,4.75,0,2.88,2.09,4.18,6.62,5.91,6.05,2.3,9.14,5.33,9.14,10.51,0,6.12-4.75,10.44-13.03,10.44-3.82,0-7.34-.94-9.79-2.38l1.58-4.82Z"/>
  </g>
  <path d="M283.54,60.87l-4.04-3.11c-.16-.12-.19-.36-.06-.51l41.74-50.1c.29-.35.84.06.57.44l-37.7,53.21c-.12.17-.35.2-.51.08Z" fill="#2b6b67" stroke="#2b6b67" stroke-linecap="round" stroke-miterlimit="10" stroke-width=".5"/>
  <g>
    <rect x="62.58" y="139.85" width="401" height="33.03" fill="none"/>
    <path d="M65.32,141.44c1.51-.25,3.49-.47,6.01-.47,3.1,0,5.36.72,6.8,2.02,1.33,1.15,2.12,2.92,2.12,5.08s-.65,3.92-1.87,5.18c-1.66,1.76-4.36,2.66-7.42,2.66-.94,0-1.8-.04-2.52-.22v9.72h-3.13v-23.97ZM68.45,153.14c.68.18,1.55.25,2.59.25,3.78,0,6.08-1.84,6.08-5.18s-2.27-4.75-5.72-4.75c-1.37,0-2.41.11-2.95.25v9.43Z" fill="#2b6b67"/>
    <path d="M83.79,153.43c0-2.05-.04-3.82-.14-5.44h2.77l.11,3.42h.14c.79-2.34,2.7-3.82,4.82-3.82.36,0,.61.04.9.11v2.99c-.32-.07-.65-.11-1.08-.11-2.23,0-3.82,1.69-4.25,4.07-.07.43-.14.94-.14,1.48v9.29h-3.13v-11.99Z" fill="#2b6b67"/>
    <path d="M96.96,157.28c.07,4.28,2.81,6.05,5.98,6.05,2.27,0,3.64-.4,4.82-.9l.54,2.27c-1.12.5-3.02,1.08-5.8,1.08-5.36,0-8.57-3.53-8.57-8.78s3.1-9.39,8.17-9.39c5.69,0,7.2,5,7.2,8.21,0,.65-.07,1.15-.11,1.48h-12.24ZM106.25,155.01c.04-2.02-.83-5.15-4.39-5.15-3.2,0-4.61,2.95-4.86,5.15h9.25Z" fill="#2b6b67"/>
    <path d="M125.65,164.77c-.83.43-2.66,1.01-5,1.01-5.26,0-8.68-3.56-8.68-8.89s3.67-9.25,9.36-9.25c1.87,0,3.53.47,4.39.9l-.72,2.45c-.76-.43-1.94-.83-3.67-.83-4,0-6.16,2.95-6.16,6.59,0,4.03,2.59,6.51,6.05,6.51,1.8,0,2.99-.47,3.89-.86l.54,2.38Z" fill="#2b6b67"/>
    <path d="M132.89,143.1c.04,1.08-.76,1.94-2.02,1.94-1.12,0-1.91-.86-1.91-1.94s.83-1.98,1.98-1.98,1.94.86,1.94,1.98ZM129.36,165.41v-17.42h3.17v17.42h-3.17Z" fill="#2b6b67"/>
    <path d="M137.35,162.17c.94.61,2.59,1.26,4.18,1.26,2.3,0,3.38-1.15,3.38-2.59,0-1.51-.9-2.34-3.24-3.2-3.13-1.12-4.61-2.84-4.61-4.93,0-2.81,2.27-5.11,6.01-5.11,1.76,0,3.31.5,4.28,1.08l-.79,2.3c-.68-.43-1.94-1.01-3.56-1.01-1.87,0-2.92,1.08-2.92,2.38,0,1.44,1.04,2.09,3.31,2.95,3.02,1.15,4.57,2.66,4.57,5.25,0,3.06-2.38,5.22-6.52,5.22-1.91,0-3.67-.47-4.9-1.19l.79-2.41Z" fill="#2b6b67"/>
    <path d="M155.57,143.1c.04,1.08-.76,1.94-2.02,1.94-1.12,0-1.91-.86-1.91-1.94s.83-1.98,1.98-1.98,1.94.86,1.94,1.98ZM152.04,165.41v-17.42h3.17v17.42h-3.17Z" fill="#2b6b67"/>
    <path d="M176.23,156.56c0,6.44-4.46,9.25-8.67,9.25-4.72,0-8.35-3.46-8.35-8.96,0-5.83,3.82-9.25,8.64-9.25s8.39,3.63,8.39,8.96ZM162.41,156.74c0,3.82,2.2,6.7,5.29,6.7s5.29-2.84,5.29-6.77c0-2.95-1.48-6.7-5.22-6.7s-5.36,3.46-5.36,6.77Z" fill="#2b6b67"/>
    <path d="M180.23,152.71c0-1.8-.04-3.28-.14-4.72h2.81l.18,2.88h.07c.86-1.66,2.88-3.28,5.76-3.28,2.41,0,6.16,1.44,6.16,7.42v10.4h-3.17v-10.04c0-2.81-1.04-5.15-4.03-5.15-2.09,0-3.71,1.48-4.25,3.24-.14.4-.22.94-.22,1.48v10.47h-3.17v-12.71Z" fill="#2b6b67"/>
    <path d="M211.66,142.99v5h4.54v2.41h-4.54v9.39c0,2.16.61,3.38,2.38,3.38.83,0,1.44-.11,1.84-.22l.14,2.38c-.61.25-1.58.43-2.81.43-1.48,0-2.66-.47-3.42-1.33-.9-.94-1.22-2.48-1.22-4.54v-9.5h-2.7v-2.41h2.7v-4.18l3.1-.83Z" fill="#2b6b67"/>
    <path d="M219.76,139.86h3.17v10.87h.07c.5-.9,1.3-1.69,2.27-2.23.94-.54,2.05-.9,3.24-.9,2.34,0,6.08,1.44,6.08,7.45v10.37h-3.17v-10.01c0-2.81-1.04-5.18-4.03-5.18-2.05,0-3.67,1.44-4.25,3.17-.18.43-.22.9-.22,1.51v10.51h-3.17v-25.56Z" fill="#2b6b67"/>
    <path d="M249.38,165.41l-.25-2.2h-.11c-.97,1.37-2.84,2.59-5.33,2.59-3.53,0-5.33-2.48-5.33-5,0-4.21,3.74-6.52,10.47-6.48v-.36c0-1.44-.4-4.03-3.96-4.03-1.62,0-3.31.5-4.54,1.3l-.72-2.09c1.44-.94,3.53-1.55,5.72-1.55,5.33,0,6.62,3.63,6.62,7.13v6.51c0,1.51.07,2.99.29,4.18h-2.88ZM248.92,156.52c-3.46-.07-7.38.54-7.38,3.92,0,2.05,1.37,3.02,2.99,3.02,2.27,0,3.71-1.44,4.21-2.92.11-.32.18-.68.18-1.01v-3.02Z" fill="#2b6b67"/>
    <path d="M260.76,142.99v5h4.54v2.41h-4.54v9.39c0,2.16.61,3.38,2.38,3.38.83,0,1.44-.11,1.84-.22l.14,2.38c-.61.25-1.58.43-2.81.43-1.48,0-2.66-.47-3.42-1.33-.9-.94-1.22-2.48-1.22-4.54v-9.5h-2.7v-2.41h2.7v-4.18l3.1-.83Z" fill="#2b6b67"/>
    <path d="M276.6,141.44c1.51-.25,3.49-.47,6.01-.47,3.1,0,5.36.72,6.8,2.02,1.33,1.15,2.12,2.92,2.12,5.08s-.65,3.92-1.87,5.18c-1.66,1.76-4.36,2.66-7.42,2.66-.94,0-1.8-.04-2.52-.22v9.72h-3.13v-23.97ZM279.73,153.14c.68.18,1.55.25,2.59.25,3.78,0,6.08-1.84,6.08-5.18s-2.27-4.75-5.72-4.75c-1.37,0-2.41.11-2.95.25v9.43Z" fill="#2b6b67"/>
    <path d="M296.51,157.28c.07,4.28,2.81,6.05,5.98,6.05,2.27,0,3.64-.4,4.82-.9l.54,2.27c-1.12.5-3.02,1.08-5.8,1.08-5.36,0-8.57-3.53-8.57-8.78s3.1-9.39,8.17-9.39c5.69,0,7.2,5,7.2,8.21,0,.65-.07,1.15-.11,1.48h-12.24ZM305.8,155.01c.04-2.02-.83-5.15-4.39-5.15-3.2,0-4.61,2.95-4.86,5.15h9.25Z" fill="#2b6b67"/>
    <path d="M312.78,153.43c0-2.05-.04-3.82-.14-5.44h2.77l.11,3.42h.14c.79-2.34,2.7-3.82,4.82-3.82.36,0,.61.04.9.11v2.99c-.32-.07-.65-.11-1.08-.11-2.23,0-3.82,1.69-4.25,4.07-.07.43-.14.94-.14,1.48v9.29h-3.13v-11.99Z" fill="#2b6b67"/>
    <path d="M325.96,165.41v-15.01h-2.45v-2.41h2.45v-.83c0-2.45.54-4.68,2.02-6.08,1.19-1.15,2.77-1.62,4.25-1.62,1.12,0,2.09.25,2.7.5l-.43,2.45c-.47-.22-1.12-.4-2.02-.4-2.7,0-3.38,2.38-3.38,5.04v.94h4.21v2.41h-4.21v15.01h-3.13Z" fill="#2b6b67"/>
    <path d="M351.44,156.56c0,6.44-4.46,9.25-8.67,9.25-4.71,0-8.35-3.46-8.35-8.96,0-5.83,3.82-9.25,8.64-9.25s8.39,3.63,8.39,8.96ZM337.62,156.74c0,3.82,2.2,6.7,5.29,6.7s5.29-2.84,5.29-6.77c0-2.95-1.48-6.7-5.22-6.7s-5.36,3.46-5.36,6.77Z" fill="#2b6b67"/>
    <path d="M355.44,153.43c0-2.05-.04-3.82-.14-5.44h2.77l.11,3.42h.14c.79-2.34,2.7-3.82,4.82-3.82.36,0,.61.04.9.11v2.99c-.32-.07-.65-.11-1.08-.11-2.23,0-3.82,1.69-4.25,4.07-.07.43-.14.94-.14,1.48v9.29h-3.13v-11.99Z" fill="#2b6b67"/>
    <path d="M367.36,152.71c0-1.8-.04-3.28-.14-4.72h2.77l.14,2.81h.11c.97-1.66,2.59-3.2,5.47-3.2,2.38,0,4.18,1.44,4.93,3.49h.07c.54-.97,1.22-1.73,1.94-2.27,1.04-.79,2.2-1.22,3.85-1.22,2.3,0,5.72,1.51,5.72,7.56v10.26h-3.1v-9.86c0-3.35-1.22-5.36-3.78-5.36-1.8,0-3.2,1.33-3.74,2.88-.14.43-.25,1.01-.25,1.58v10.76h-3.1v-10.44c0-2.77-1.22-4.79-3.63-4.79-1.98,0-3.42,1.58-3.92,3.17-.18.47-.25,1.01-.25,1.55v10.51h-3.1v-12.71Z" fill="#2b6b67"/>
    <path d="M396.95,162.17c.94.61,2.59,1.26,4.18,1.26,2.3,0,3.38-1.15,3.38-2.59,0-1.51-.9-2.34-3.24-3.2-3.13-1.12-4.61-2.84-4.61-4.93,0-2.81,2.27-5.11,6.01-5.11,1.76,0,3.31.5,4.28,1.08l-.79,2.3c-.68-.43-1.94-1.01-3.56-1.01-1.87,0-2.92,1.08-2.92,2.38,0,1.44,1.04,2.09,3.31,2.95,3.02,1.15,4.57,2.66,4.57,5.25,0,3.06-2.38,5.22-6.52,5.22-1.91,0-3.67-.47-4.89-1.19l.79-2.41Z" fill="#2b6b67"/>
  </g>
  <path d="M351.73.53c10.14.53,32.16,1.84,56.82,11.42,35.42,13.77,58.71,37.78,56.5,39.9-2.37,2.28-34.16-20.8-60.86-33.16C273.45-41.82,69.26,64.32,67.15,60.27c-1.95-3.75,188.58-64.73,284.57-59.74Z" fill="#2b6b67"/>
</svg>